<?xml version="1.0" encoding="utf-8"?>
<!-- Generator: Adobe Illustrator 14.0.0, SVG Export Plug-In . SVG Version: 6.00 Build 43363)  -->
<!DOCTYPE svg PUBLIC "-//W3C//DTD SVG 1.1//EN" "http://www.w3.org/Graphics/SVG/1.1/DTD/svg11.dtd">
<svg version="1.1" id="Layer_1" xmlns="http://www.w3.org/2000/svg" xmlns:xlink="http://www.w3.org/1999/xlink" x="0px" y="0px"
	 width="566.929px" height="566.93px" viewBox="0 0 566.929 566.93" enable-background="new 0 0 566.929 566.93"
	 xml:space="preserve">
<g>
	<g>
		<path fill="#FFFF00" d="M283.881,26.22v256.025L434.367,75.119C392.122,44.373,340.124,26.22,283.881,26.22z"/>
		<g>
			<path fill="#0000FF" d="M434.367,75.119L283.881,282.247l0,0l243.549-79.135C510.572,151.203,477.578,106.566,434.367,75.119z"/>
			<g>
				<path fill="#33FF66" d="M283.881,282.247L283.881,282.247L283.881,282.247z"/>
				<path fill="#FF0000" d="M527.43,203.112l-243.549,79.135l0,0l243.54,79.127c8.092-24.922,12.482-51.514,12.482-79.127
					C539.904,254.628,535.525,228.032,527.43,203.112z"/>
				<path fill="#00CC00" d="M434.366,489.37c43.203-31.45,76.196-76.084,93.055-127.996l-243.54-79.127L434.366,489.37z"/>
				<path fill="#61380B" d="M283.881,282.247v256.02c56.245,0,108.245-18.147,150.485-48.896L283.881,282.247L283.881,282.247z"/>
			</g>
		</g>
	</g>
	<g>
		<path fill="#848484" d="M283.881,26.22v256.025L133.453,75.119C175.688,44.373,227.661,26.22,283.881,26.22z"/>
		<g>
			<path fill="#66CCFF" d="M133.453,75.119l150.427,207.128l0,0L40.389,203.112C57.249,151.203,90.242,106.566,133.453,75.119z"/>
			<g>
				<path fill="#33FF66" d="M283.881,282.247L283.881,282.247L283.881,282.247z"/>
				<path fill="#6A0888" d="M40.389,203.112l243.493,79.135l0,0L40.401,361.374c-8.093-24.922-12.483-51.514-12.483-79.127
					C27.916,254.628,32.295,228.032,40.389,203.112z"/>
				<path fill="#FF8000" d="M133.454,489.37C90.25,457.92,57.256,413.286,40.4,361.374l243.481-79.127L133.454,489.37z"/>
				<path fill="#FF00FF" d="M283.881,282.247v256.02c-56.221,0-108.195-18.147-150.426-48.896L283.881,282.247L283.881,282.247z"/>
			</g>
		</g>
	</g>
</g>
</svg>
